<svg width="309" height="265" viewBox="0 0 309 265" fill="none" xmlns="http://www.w3.org/2000/svg">
<g clip-path="url(#clip0_176_956)">
<path opacity="0.18" d="M174.796 252.358C187.828 245.163 199.278 235.3 212.366 228.273C228.954 219.426 247.678 215.378 266.436 216.583C271.648 216.926 277.069 217.647 281.958 215.799C286.344 214.133 289.736 210.584 292.625 206.889C309.007 185.967 313.554 156.344 304.202 131.46C300.816 122.445 295.724 113.961 294.304 104.4C291.037 82.4487 307.909 61.3727 305.272 39.3378C303.453 24.1696 292.094 11.1712 278.16 4.98351C264.226 -1.20419 248.096 -1.16919 233.336 2.54063C217.213 6.57943 202.391 14.734 186.415 19.3398C156.19 28.0054 123.852 23.4346 92.6829 27.3754C61.5136 31.3162 27.4904 48.4584 21.3209 79.3129C17.5926 97.9459 24.9582 117.671 20.2157 136.073C16.2216 151.549 4.12738 164.128 0.979668 179.807C-7.41422 221.931 40.0322 233.76 66.7878 249.3C99.5169 268.304 141.179 270.928 174.796 252.358Z" fill="#4DD783"/>
<path d="M181.287 168.363C181.615 171.394 181.93 174.529 181.021 177.462C179.412 182.614 174.411 185.862 169.598 188.284C159.889 193.17 149.397 196.564 139.275 200.561C135.876 201.912 132.07 203.816 131.259 207.379C130.895 208.975 131.21 210.69 130.643 212.216C130.077 213.742 127.915 214.861 126.852 213.616C126.455 213.031 126.258 212.334 126.293 211.628L125.852 203.48C125.705 200.757 125.558 197.978 126.244 195.332C126.929 192.687 128.573 190.153 131.084 189.089C131.931 188.739 132.84 188.557 133.7 188.221C136.89 186.982 138.841 183.832 140.765 180.99C145.291 174.319 151.257 168.097 158.952 165.829C156.536 162.107 154.912 157.927 154.183 153.549C153.454 149.171 153.634 144.69 154.713 140.385C155.839 136.003 158.119 131.643 162.044 129.396C163.556 128.533 165.271 128.089 167.012 128.11C168.753 128.131 170.457 128.616 171.948 129.515C175.446 131.776 175.956 135.863 176.88 139.643C179.209 149.072 180.251 158.731 181.287 168.363Z" fill="#3E3E54"/>
<path d="M181.287 168.727C181.615 171.765 181.93 174.893 181.021 177.826C179.412 182.978 174.411 186.226 169.598 188.655C159.889 193.561 149.397 196.942 139.275 200.96C135.876 202.304 132.07 204.208 131.259 207.778C130.895 209.367 131.21 211.089 130.643 212.615C130.077 214.14 127.915 215.253 126.852 214.014C126.455 213.43 126.258 212.732 126.293 212.027L125.852 203.879C125.705 201.149 125.558 198.377 126.244 195.731C126.929 193.085 128.573 190.552 131.084 189.488C131.931 189.131 132.84 188.956 133.7 188.62C136.89 187.374 138.841 184.224 140.765 181.389C145.291 174.718 151.257 168.496 158.952 166.228C156.536 162.505 154.913 158.323 154.183 153.944C153.454 149.565 153.634 145.083 154.713 140.777C155.839 136.395 158.119 132.041 162.044 129.795C163.556 128.932 165.271 128.488 167.012 128.509C168.753 128.529 170.457 129.014 171.948 129.914C175.446 132.174 175.956 136.262 176.88 140.042C179.209 149.464 180.251 159.116 181.287 168.727Z" fill="url(#paint0_linear_176_956)"/>
<path d="M163.695 130.635C163.699 136.899 162.207 143.074 159.344 148.645C157.854 151.536 155.993 154.293 155.147 157.415C149.39 178.029 126.034 189.474 108.603 202.514C101.524 207.806 93.7528 213.182 90.5841 221.301C90.1574 222.407 89.7237 223.653 88.6465 224.206C87.1006 224.99 85.1491 223.709 84.5965 222.106C84.0439 220.503 84.5265 218.753 84.9952 217.115L87.4854 208.387C87.6904 207.391 88.1159 206.453 88.7305 205.643C89.4737 204.948 90.321 204.374 91.2416 203.942C97.663 200.204 99.6845 192.316 103.028 185.82C106.867 178.45 112.811 172.39 120.103 168.412C122.033 167.355 124.104 166.41 125.587 164.807C127.07 163.204 127.895 160.887 128.629 158.738C131.089 151.572 133.912 144.535 137.086 137.655C138.352 134.904 145.669 122.256 147.809 120.051C153.3 114.416 158.379 124.832 163.695 130.635Z" fill="#3E3E54"/>
<path d="M190.283 77.1572C190.283 78.0461 190.22 78.9631 190.22 79.887C190.22 82.8479 189.94 86.1097 187.842 88.1956C186.24 89.7845 183.918 90.3375 181.777 91.0375C166.276 96.1052 156.372 111.077 142.648 119.883C139.738 121.745 136.352 123.383 132.988 122.998C132.579 122.955 132.174 122.88 131.778 122.774C129.567 122.2 127.713 120.723 125.601 119.876C121.404 118.203 116.683 119.134 112.458 120.646C108.233 122.158 104.141 124.216 99.6919 124.846C95.2431 125.476 90.1648 124.286 87.6816 120.541C86.3386 118.497 85.9329 115.984 84.8837 113.779C81.0505 105.821 70.0265 103.868 65.158 96.5462C65.0741 96.4202 64.9831 96.2872 64.9062 96.1542C64.1797 94.9758 63.6417 93.691 63.3114 92.3464C63.2114 91.9849 63.132 91.618 63.0735 91.2475C62.6132 88.5846 62.8914 85.8465 63.878 83.3308L64.0039 83.0019C64.9246 80.9125 66.2789 79.0431 67.977 77.5177C69.675 75.9923 71.6779 74.8458 73.8527 74.1543C79.9313 72.2434 86.4925 73.9233 92.8648 73.8043C99.538 73.6783 106.218 71.5574 112.786 72.7054C117.907 73.5943 122.579 76.4082 127.266 78.7181C131.162 80.629 135.1 82.2179 139.395 82.0779C143.214 81.9729 146.859 80.489 150.293 78.7951C156.588 75.7012 162.569 71.8374 169.179 69.4015C174.125 67.5746 179.616 66.6017 184.855 67.5326C190.409 68.5546 190.416 72.4674 190.283 77.1572Z" fill="#4DD783"/>
<path d="M180.706 84.3039C179.244 86.0258 176.985 86.7888 174.907 87.6707C165.625 91.6255 163.541 103.497 156.63 111.036C152.37 115.676 138.632 121.283 138.443 119.785C138.156 117.72 134.945 122.263 133.008 122.998C132.599 122.955 132.195 122.88 131.798 122.774C129.587 122.2 127.734 120.723 125.621 119.876C121.424 118.203 116.703 119.134 112.478 120.646C108.253 122.158 104.161 124.216 99.712 124.846C95.2633 125.476 90.185 124.286 87.7018 120.541C86.3588 118.497 85.9531 115.984 84.9038 113.779C82.3577 108.481 76.6219 105.849 71.6135 102.517C69.0832 100.98 66.8875 98.9495 65.1572 96.5463C65.0733 96.4203 64.9823 96.2873 64.9054 96.1543C64.1789 94.9758 63.6408 93.6911 63.3105 92.3465C64.8948 90.6316 66.8329 89.2821 68.9904 88.3917C74.8801 85.9488 81.5812 87.0548 87.8767 86.3758C94.5148 85.6758 100.985 82.988 107.63 83.5759C117.087 84.3879 125.523 91.6955 134.91 90.6106C138.716 90.1696 142.213 88.3707 145.487 86.4108C151.509 82.785 157.112 78.4172 163.471 75.4143C168.234 73.1744 173.62 71.7045 178.929 72.2015C180.055 72.2748 181.151 72.595 182.14 73.1394C182.196 74.0214 182.231 74.9383 182.315 75.8553C182.616 78.7672 182.616 82.043 180.706 84.3039Z" fill="url(#paint1_linear_176_956)"/>
<path d="M161.988 104.47C157.728 109.111 145.312 117.314 140.388 121.108C138.737 122.389 134.938 122.263 132.994 122.998C132.585 122.955 132.181 122.88 131.784 122.774C129.573 122.2 127.72 120.723 125.607 119.876C121.41 118.203 116.689 119.134 112.464 120.646C108.239 122.158 104.147 124.216 99.6981 124.846C95.2494 125.476 90.1711 124.286 87.6879 120.541C86.3449 118.497 85.9392 115.984 84.8899 113.779C82.3438 108.481 76.608 105.849 71.5996 102.517C72.0165 102.19 72.5191 101.991 73.0467 101.944C73.5743 101.896 74.1042 102.003 74.5724 102.251C79.5108 105.625 86.191 104.505 91.8219 102.496C97.4528 100.487 103.077 97.6942 109.036 98.0861C115.751 98.5201 121.557 102.944 128.125 104.47C132.931 105.566 137.962 105.075 142.465 103.07C144.92 101.978 155.797 91.5975 157.966 93.1794C158.763 93.7603 167.059 88.7836 167.332 89.7355C167.542 90.4705 161.988 103.728 161.988 104.47Z" fill="url(#paint2_linear_176_956)"/>
<path d="M240.289 43.4259C240.697 43.8627 240.968 44.4104 241.068 45.0004C241.167 45.5905 241.091 46.1969 240.848 46.7437C240.344 47.8248 239.63 48.7954 238.75 49.5996C231.468 57.0682 221.584 63.9349 214.317 71.3965C210.511 75.3093 209.644 76.0653 205.615 79.7541C202.978 82.169 200.236 84.5069 198.046 87.3348C196.053 89.9246 194.262 96.6163 192.793 99.5351L185.428 114.234C182.909 119.246 180.377 124.286 177.034 128.787C176.453 129.699 175.658 130.456 174.718 130.992C173.793 131.359 172.804 131.54 171.808 131.524C166.66 131.818 161.386 132.672 156.42 131.251C151.453 129.83 146.914 125.168 147.767 120.051C148.176 118.308 148.887 116.65 149.865 115.151L158.77 99.4372C161.456 94.7054 164.135 89.9736 166.912 85.2908C169.087 81.63 171.382 77.9272 174.662 75.2113C177.558 72.8105 181.063 71.3055 184.518 69.8286C191.842 66.6928 199.208 63.9139 205.979 59.7141C212.858 55.4317 220.037 51.6514 227.46 48.4027C231.666 46.5687 235.942 44.9098 240.289 43.4259Z" fill="white"/>
<path d="M204.524 70.4025C205.433 69.5415 205.58 68.1696 206.147 67.0567C206.951 65.4747 208.553 64.5018 210.05 63.5568C215.884 59.8135 221.137 55.2336 225.642 49.9635C219.185 51.6084 213.526 55.4092 208.014 59.1471L198.816 65.3767C195.165 67.8546 191.457 70.3745 188.645 73.7763C188.406 74.0256 188.239 74.3353 188.163 74.6723C188.044 75.5192 188.96 76.0722 189.639 76.6042C192.521 78.8511 194.654 80.188 196.116 76.0162C196.725 74.2733 197.382 73.2164 199.11 72.3204C200.838 71.4244 203.146 71.7044 204.524 70.4025Z" fill="url(#paint3_linear_176_956)"/>
<path d="M189.968 82.8269C190.892 83.1503 191.765 83.6027 192.563 84.1708C192.94 84.451 193.348 84.6859 193.78 84.8708C193.996 84.9626 194.228 85.01 194.462 85.01C194.696 85.01 194.928 84.9626 195.144 84.8708C195.235 84.8265 195.31 84.7557 195.361 84.6678C195.406 84.5434 195.406 84.4072 195.361 84.2828C194.81 82.6256 194.108 81.0228 193.262 79.4951C193.169 79.3029 193.041 79.1297 192.885 78.9841C192.623 78.8104 192.317 78.7134 192.003 78.7041C191.093 78.6067 190.173 78.6279 189.268 78.7671C188.749 78.8244 188.26 79.0421 187.869 79.3901C187.59 79.7171 187.403 80.1138 187.331 80.538C187.125 81.2589 187.075 82.0152 187.184 82.7569C187.617 82.7569 188.086 82.5679 188.548 82.5679C189.031 82.5871 189.509 82.6743 189.968 82.8269Z" fill="url(#paint4_linear_176_956)"/>
<path d="M178.734 75.9673C178.007 77.7442 177.639 79.6472 177.65 81.5671C177.491 82.967 177.676 84.3845 178.188 85.6968C178.226 85.7992 178.291 85.8889 178.377 85.9558C178.524 86.0236 178.689 86.0384 178.846 85.9978C179.721 85.8795 180.611 85.927 181.469 86.1378C181.527 86.1475 181.58 86.1744 181.623 86.2148C181.666 86.2635 181.693 86.3248 181.7 86.3898L182.021 88.0557C183.252 94.3554 181.049 101.481 175.922 105.352C174.191 106.518 172.34 107.496 170.403 108.271C167.031 109.832 163.73 111.771 161.246 114.507C158.763 117.244 157.154 121.017 157.623 124.713C162.291 122.344 166.429 119.05 169.787 115.032C172.173 112.17 174.173 108.929 177.048 106.563C178.748 105.163 180.734 104.092 182.196 102.44C184.994 99.2902 185.337 94.7404 185.547 90.5406C185.834 84.6609 185.708 77.8222 181.098 74.1754C180.629 74.4624 178.986 75.4284 178.734 75.9673Z" fill="url(#paint5_linear_176_956)"/>
<path d="M246.696 35.8593C247.983 35.4393 249.494 35.2713 250.599 36.0483C251.249 36.5579 251.735 37.2465 251.998 38.0292C252.698 39.8351 252.782 42.068 251.551 43.5729C250.728 44.4349 249.718 45.096 248.599 45.5048C246.32 46.6465 243.923 47.5338 241.45 48.1507C239.953 48.4727 237.673 48.5497 236.882 46.8767C236.183 45.3928 237.666 43.7549 238.477 42.6279C240.583 39.7301 243.22 37.0142 246.696 35.8593Z" fill="url(#paint6_linear_176_956)"/>
<path d="M143.606 89.6796C139.584 91.9195 135.464 94.4464 133.155 98.4222C131.001 102.132 130.714 106.626 130.791 110.917C130.822 115.649 131.392 120.362 132.491 124.965C132.617 125.476 132.827 126.057 133.323 126.218C133.695 126.286 134.079 126.214 134.4 126.015C135.983 125.235 137.378 124.122 138.49 122.752C139.602 121.382 140.405 119.787 140.843 118.077C141.144 116.852 141.255 115.592 141.479 114.36C142.067 111.629 142.932 108.965 144.06 106.409C144.451 105.255 145.038 104.178 145.795 103.224C146.623 102.399 147.586 101.722 148.642 101.222C154.448 98.0442 160.31 94.9644 166.227 91.9825C168.433 90.9785 170.515 89.7219 172.432 88.2377C174.362 86.7326 175.684 84.5797 176.153 82.176C176.51 79.8031 178.301 74.4764 175.237 74.6724C172.173 74.8684 165.892 77.5422 163.129 78.7462C156.288 81.756 150.097 86.0468 143.606 89.6796Z" fill="white"/>
<path d="M176.782 78.9491C176.579 80.1461 176.272 81.364 176.153 82.211C175.68 84.6112 174.359 86.7606 172.431 88.2657C170.515 89.7498 168.433 91.0065 166.227 92.0105C160.319 94.9923 154.457 98.0722 148.642 101.25C147.587 101.752 146.624 102.429 145.795 103.252C145.031 104.201 144.444 105.28 144.06 106.437C142.933 108.993 142.068 111.657 141.479 114.388C141.255 115.62 141.143 116.88 140.835 118.105C140.393 119.812 139.589 121.404 138.479 122.773C137.369 124.142 135.978 125.257 134.4 126.043C134.079 126.244 133.694 126.314 133.323 126.239C132.826 126.085 132.623 125.497 132.498 124.993C131.395 120.381 130.822 115.658 130.791 110.917C130.707 106.619 131.001 102.139 133.155 98.4222C135.47 94.4394 139.59 91.9125 143.598 89.6796C150.118 86.0468 156.287 81.756 163.128 78.7741C165.926 77.5772 172.222 74.9173 175.236 74.6933C177.216 74.5673 177.174 76.7372 176.782 78.9491Z" fill="white"/>
<path d="M172.319 75.6243C173.926 77.2226 175.678 78.6684 177.551 79.9431C179.436 81.2355 181.7 81.8545 183.98 81.7C184.378 81.651 184.854 81.511 184.952 81.119C185.05 80.7271 184.672 80.3561 184.35 80.0971C182.602 78.6972 181.182 76.6463 181.168 74.3994C181.168 73.3214 181.454 72.1665 180.923 71.2285C180.223 70.0596 178.657 69.8776 177.306 69.9406C175.955 70.0031 174.61 70.1716 173.284 70.4446C172.165 70.6756 163.142 74.6864 164.275 74.9663C164.464 75.0153 168.815 72.3835 172.319 75.6243Z" fill="#4DD783"/>
<path d="M172.655 72.6004C172.218 72.4578 171.806 72.2501 171.431 71.9844C171.245 71.8516 171.1 71.6687 171.013 71.4569C170.926 71.245 170.902 71.0129 170.941 70.7875C171.016 70.5438 171.153 70.3241 171.34 70.1505C172.683 68.7506 174.698 68.2116 176.614 67.8477C179.377 67.3227 182.42 67.0427 184.84 68.4706C185.148 68.6526 185.477 68.9396 185.421 69.2966C185.37 69.4945 185.254 69.6695 185.092 69.7936C184.078 70.7455 182.868 71.4315 181.804 72.3204C180.741 73.2094 180.259 74.6513 179.244 75.5403C177.335 77.2132 174.537 73.3634 172.655 72.6004Z" fill="url(#paint7_linear_176_956)"/>
<path d="M176.782 78.9491C176.579 80.146 176.271 81.364 176.153 82.2109C175.68 84.6111 174.359 86.7606 172.431 88.2656C170.515 89.7498 168.433 91.0064 166.227 92.0105C160.318 94.9923 154.457 98.0722 148.642 101.25C147.587 101.752 146.624 102.429 145.795 103.252C145.031 104.201 144.444 105.28 144.06 106.437C142.932 108.993 142.068 111.657 141.479 114.388C141.255 115.62 141.143 116.88 140.835 118.105C140.383 119.913 139.516 121.591 138.303 123.005C137.867 119.97 137.633 116.909 137.604 113.842C137.527 109.552 137.813 105.058 139.968 101.348C142.276 97.3722 146.396 94.8453 150.418 92.5984C156.938 88.9726 163.1 84.6818 169.941 81.707C171.487 81 174.187 79.8521 176.782 78.9491Z" fill="url(#paint8_linear_176_956)"/>
<path d="M125.545 133.518C126.498 132.292 127.714 131.295 129.102 130.6C130.49 129.905 132.016 129.529 133.568 129.501C135 129.298 136.459 129.434 137.828 129.9C138.862 130.332 139.745 131.06 140.367 131.993C140.989 132.926 141.323 134.021 141.326 135.142C141.341 135.915 141.095 136.67 140.626 137.284C140.392 137.589 140.074 137.818 139.71 137.943C139.347 138.067 138.955 138.082 138.584 137.984C138.474 137.956 138.373 137.902 138.289 137.827C138.205 137.751 138.14 137.656 138.101 137.55C138.07 137.426 138.07 137.296 138.101 137.172C138.335 136.102 138.26 134.988 137.884 133.959C137.692 133.446 137.379 132.986 136.971 132.621C136.563 132.255 136.072 131.994 135.541 131.86C134.576 131.784 133.604 131.867 132.666 132.105C131.267 132.532 128.868 133.504 128.049 134.687C127.231 135.87 127.168 137.886 125.916 138.775C125.069 139.37 123.712 139.776 123.118 138.481C122.523 137.186 124.734 134.435 125.545 133.518Z" fill="#3E3E54"/>
<path d="M195.438 81.266C195.508 81.574 195.536 81.966 195.284 82.1409C195.169 82.208 195.039 82.2433 194.906 82.2433C194.773 82.2433 194.643 82.208 194.528 82.1409C193.353 81.602 192.528 80.377 191.262 80.1041C190.487 80.0411 189.708 80.0411 188.932 80.1041C188.156 80.0621 187.268 79.5861 187.247 78.8091C187.247 78.2001 187.736 77.7242 188.198 77.3252C189.023 76.6252 189.779 75.8343 190.576 75.0993C191.569 74.1893 191.758 74.1613 192.584 75.2813C193.919 77.069 194.889 79.1027 195.438 81.266Z" fill="white"/>
<path d="M183.532 80.7761C183.422 80.8163 183.325 80.8866 183.252 80.979C183.202 81.0783 183.182 81.1905 183.196 81.301C183.272 82.175 183.603 83.0074 184.148 83.6949C184.658 84.3949 185.26 85.0388 185.729 85.7948C186.46 85.4382 187.082 84.8901 187.528 84.2086C187.974 83.5272 188.227 82.7378 188.261 81.924C188.289 81.614 188.255 81.3015 188.162 81.0046C188.068 80.7078 187.916 80.4326 187.715 80.1951C186.652 79.0751 184.602 80.2581 183.532 80.7761Z" fill="#13B75A"/>
<path d="M184.008 93.7324C183.782 96.1838 182.748 98.4907 181.07 100.291C179.796 101.474 178.288 102.375 176.643 102.937C173.264 104.232 169.648 104.778 166.15 105.618C162.653 106.458 159.085 107.641 156.315 109.979C152.601 113.121 150.719 117.944 149.656 122.683L155.889 121.983C156.258 121.967 156.62 121.874 156.952 121.71C157.321 121.443 157.617 121.086 157.812 120.674C160.044 116.859 162.898 113.317 166.591 110.875C170.011 108.635 173.999 107.438 177.657 105.625C181.315 103.812 184.869 101.089 186.086 97.1832C186.501 95.6905 186.708 94.1477 186.701 92.5984C186.757 90.5475 186.701 88.4896 186.582 86.4387C186.582 85.0301 186.257 83.6407 185.631 82.3789C184.806 84.1428 183.791 85.6267 183.98 87.5867C184.213 89.6281 184.222 91.6889 184.008 93.7324Z" fill="#4DD783"/>
<path d="M134.708 121.955C133.815 122.584 133.138 123.474 132.77 124.503C131.742 126.68 130.672 129.039 131.063 131.419C131.143 132.055 131.403 132.654 131.812 133.147C132.141 133.463 132.537 133.699 132.971 133.837C133.405 133.975 133.865 134.012 134.316 133.945C135.215 133.803 136.082 133.502 136.876 133.056C138.401 132.294 139.996 131.3 140.555 129.69C141.031 128.29 140.625 126.792 140.227 125.385C139.961 124.468 139.527 121.773 138.639 121.283C137.911 120.905 135.407 121.57 134.708 121.955Z" fill="url(#paint9_linear_176_956)"/>
<path d="M149.971 135.247C150.505 135.199 151.044 135.266 151.551 135.443C152.022 135.679 152.421 136.037 152.706 136.479C153.8 138.13 154.294 140.107 154.105 142.079C153.904 144.034 153.482 145.96 152.845 147.819L148.648 161.818C148.341 163.215 147.708 164.519 146.802 165.626C145.214 167.278 142.682 167.474 140.395 167.53C130.867 167.775 121.333 167.355 111.82 166.83C109.56 166.82 107.317 166.447 105.175 165.724C103.916 165.22 102.671 164.324 102.307 163.05C102.167 162.43 102.146 161.788 102.244 161.16C102.5 159.222 102.878 157.303 103.377 155.413C104.441 151.025 105.518 146.594 107.448 142.506C108.006 141.149 108.859 139.935 109.946 138.95C110.64 138.406 111.417 137.976 112.247 137.676C116.234 136.143 120.487 137.123 124.635 136.724C130.072 136.202 135.514 135.817 140.961 135.569C143.95 135.406 146.953 135.299 149.971 135.247Z" fill="#3E3E54"/>
<path d="M148.95 135.373C149.485 135.328 150.023 135.395 150.531 135.569C151.003 135.805 151.404 136.162 151.692 136.605C152.783 138.258 153.277 140.233 153.091 142.205C152.888 144.16 152.464 146.086 151.825 147.945L147.628 161.944C147.32 163.341 146.687 164.646 145.781 165.752C144.193 167.404 141.661 167.6 139.374 167.663C129.847 167.901 120.32 167.481 110.8 166.963C108.54 166.953 106.296 166.58 104.154 165.857C102.902 165.353 101.65 164.457 101.287 163.183C101.149 162.562 101.13 161.921 101.231 161.293C101.484 159.356 101.861 157.436 102.357 155.546C103.42 151.158 104.497 146.727 106.428 142.639C106.987 141.283 107.84 140.069 108.925 139.083C109.618 138.539 110.396 138.111 111.226 137.816C115.213 136.276 119.466 137.256 123.621 136.857C129.049 136.335 134.489 135.95 139.94 135.702C142.93 135.544 145.933 135.434 148.95 135.373Z" fill="url(#paint10_linear_176_956)"/>
<path d="M188.477 64.3759C188.7 64.1342 188.87 63.8479 188.974 63.5359C189.033 63.2402 189.033 62.9357 188.974 62.64C188.666 60.7431 188.044 58.8672 188.17 56.9423C188.336 54.8842 189.276 52.9657 190.8 51.5735C192.322 50.2043 194.23 49.339 196.263 49.0956C197.58 48.8611 198.938 49.0781 200.117 49.7116C201.67 50.6706 202.383 52.5115 202.796 54.3034C203.209 56.0953 203.46 57.9572 204.461 59.4761C204.734 59.8891 205.083 60.3651 204.936 60.8761C204.845 61.0867 204.722 61.2826 204.573 61.457C203.509 63.011 204.776 65.3908 203.691 66.9308C203.416 67.2902 203.065 67.5842 202.663 67.7917C200.942 68.7297 198.851 68.5967 196.983 69.1917C195.198 69.8406 193.619 70.9546 192.409 72.4185C191.149 73.8184 190.114 75.4213 188.974 76.9263C188.537 77.6615 187.887 78.2459 187.109 78.6011C186.332 78.9563 185.464 79.0656 184.623 78.9142C184.35 78.9656 184.07 78.9623 183.798 78.9044C183.526 78.8465 183.269 78.7353 183.04 78.5771C182.812 78.4188 182.617 78.2168 182.468 77.9827C182.318 77.7486 182.216 77.487 182.168 77.2133C181.75 76.177 181.499 75.0806 181.427 73.9654C181.371 71.7605 182.672 71.0046 184.001 69.5556C185.558 67.8664 187.05 66.1398 188.477 64.3759Z" fill="url(#paint11_linear_176_956)"/>
<path d="M198.55 45.8267C197.078 45.0972 195.406 44.8734 193.794 45.1898C192.822 45.2908 191.875 45.5608 190.996 45.9877C188.519 47.2617 187.267 50.1385 184.931 51.6505C184.085 52.2034 183.091 52.5744 182.427 53.3304C182.106 53.6911 181.875 54.1228 181.754 54.5901C181.632 55.0573 181.623 55.5468 181.727 56.0182C181.869 56.3835 181.931 56.7749 181.909 57.1662C181.766 57.5784 181.526 57.9503 181.21 58.2511C180.81 58.7752 180.584 59.4115 180.564 60.0706C180.544 60.7296 180.731 61.3785 181.098 61.926C182.063 63.3259 183.973 63.6829 185.106 64.9148C185.686 65.5448 186.155 66.4407 187.008 66.5457C187.6 66.5436 188.167 66.3099 188.589 65.8948C189.757 64.9708 190.835 63.7179 190.926 62.2269C190.926 61.716 190.863 61.198 190.926 60.687C190.929 60.4295 190.998 60.1772 191.127 59.9541C191.255 59.7311 191.439 59.5448 191.66 59.4131C191.941 59.3193 192.242 59.3083 192.529 59.3815C192.815 59.4548 193.075 59.6091 193.276 59.8261C193.71 60.225 194.017 60.743 194.444 61.149C194.475 61.1881 194.52 61.2132 194.57 61.219C194.594 61.2174 194.618 61.211 194.639 61.2002C194.661 61.1894 194.68 61.1743 194.696 61.156C194.909 60.9029 195.048 60.5955 195.098 60.2681C195.147 59.9407 195.105 59.6059 194.976 59.3011C194.707 58.6947 194.523 58.0539 194.43 57.3972C194.453 56.9626 194.568 56.5378 194.768 56.1515C194.969 55.7652 195.249 55.4262 195.591 55.1573C196.242 54.5833 196.99 54.1493 197.69 53.5824C198.781 52.6444 200.166 50.9155 200.488 49.4736C200.809 48.0316 199.76 46.5267 198.55 45.8267Z" fill="#3E3E54"/>
<path d="M184.554 77.8152C185.086 78.3332 185.75 79.0542 185.372 79.6981C184.995 80.3421 184.218 80.1671 183.568 80.1041C183.063 80.0332 182.549 80.0674 182.058 80.2048C181.566 80.3421 181.109 80.5795 180.714 80.9021C179.714 81.84 179.511 83.506 178.322 84.1989C177.767 80.79 177.785 77.3121 178.378 73.9094C178.455 73.3955 178.587 72.8911 178.769 72.4045C179.177 71.574 179.726 70.8208 180.392 70.1786C180.846 69.8361 181.389 69.6321 181.956 69.5912C182.523 69.5502 183.09 69.674 183.589 69.9476C183.589 69.9476 182.022 72.2715 182.113 72.9995C182.368 74.8319 183.227 76.5268 184.554 77.8152Z" fill="white"/>
<path d="M128.412 81.658C128.412 83.4079 126.216 84.4089 124.495 84.0659C122.774 83.7229 121.347 82.582 119.773 81.826C114.597 79.3481 108.526 81.343 102.797 81.399C95.8019 81.476 88.9609 78.5502 81.938 78.6762C77.0252 78.7766 72.2569 80.3573 68.2559 83.212C67.8325 83.4529 67.4382 83.7418 67.0808 84.0729C66.8919 84.2829 64.9823 87.8527 63.0657 91.2406C62.6054 88.5777 62.8836 85.8396 63.8701 83.324L63.996 82.995C64.9183 80.9062 66.2741 79.0377 67.9734 77.5135C69.6726 75.9893 71.6765 74.8442 73.8519 74.1544C79.9304 72.2435 86.4917 73.9234 92.864 73.8044C99.5372 73.6784 106.217 71.5575 112.786 72.7055C117.906 73.5944 122.578 76.4083 127.265 78.7182C127.517 79.1592 127.741 79.6071 127.964 80.0621C128.229 80.5547 128.382 81.0996 128.412 81.658Z" fill="url(#paint12_linear_176_956)"/>
</g>
<defs>
<linearGradient id="paint0_linear_176_956" x1="125.726" y1="171.534" x2="181.615" y2="171.534" gradientUnits="userSpaceOnUse">
<stop stop-opacity="0"/>
<stop offset="0.99"/>
</linearGradient>
<linearGradient id="paint1_linear_176_956" x1="99.5232" y1="107.963" x2="190.266" y2="53.5528" gradientUnits="userSpaceOnUse">
<stop stop-color="#4DD783"/>
<stop offset="0.99"/>
</linearGradient>
<linearGradient id="paint2_linear_176_956" x1="95.851" y1="139.608" x2="166.984" y2="17.086" gradientUnits="userSpaceOnUse">
<stop stop-opacity="0"/>
<stop offset="0.99"/>
</linearGradient>
<linearGradient id="paint3_linear_176_956" x1="221.598" y1="61.051" x2="101.645" y2="94.2924" gradientUnits="userSpaceOnUse">
<stop stop-opacity="0"/>
<stop offset="0.99"/>
</linearGradient>
<linearGradient id="paint4_linear_176_956" x1="191.024" y1="83.9468" x2="194.274" y2="70.5575" gradientUnits="userSpaceOnUse">
<stop stop-opacity="0"/>
<stop offset="0.72" stop-opacity="0.51"/>
<stop offset="0.99"/>
</linearGradient>
<linearGradient id="paint5_linear_176_956" x1="127.972" y1="91.5906" x2="347.027" y2="132.855" gradientUnits="userSpaceOnUse">
<stop stop-opacity="0"/>
<stop offset="0.99"/>
</linearGradient>
<linearGradient id="paint6_linear_176_956" x1="236.701" y1="41.921" x2="252.516" y2="41.921" gradientUnits="userSpaceOnUse">
<stop stop-color="#E5C5D5"/>
<stop offset="0.42" stop-color="#EAD4D1"/>
<stop offset="1" stop-color="#F0E9CB"/>
</linearGradient>
<linearGradient id="paint7_linear_176_956" x1="171.9" y1="66.3847" x2="188.435" y2="76.7971" gradientUnits="userSpaceOnUse">
<stop stop-opacity="0"/>
<stop offset="0.99"/>
</linearGradient>
<linearGradient id="paint8_linear_176_956" x1="157.497" y1="85.9558" x2="154.948" y2="160.425" gradientUnits="userSpaceOnUse">
<stop stop-opacity="0"/>
<stop offset="0.99"/>
</linearGradient>
<linearGradient id="paint9_linear_176_956" x1="130.979" y1="127.569" x2="140.765" y2="127.569" gradientUnits="userSpaceOnUse">
<stop stop-color="#E5C5D5"/>
<stop offset="0.42" stop-color="#EAD4D1"/>
<stop offset="1" stop-color="#F0E9CB"/>
</linearGradient>
<linearGradient id="paint10_linear_176_956" x1="101.161" y1="127.506" x2="147.824" y2="169.171" gradientUnits="userSpaceOnUse">
<stop stop-opacity="0"/>
<stop offset="0.99"/>
</linearGradient>
<linearGradient id="paint11_linear_176_956" x1="181.455" y1="63.9559" x2="204.999" y2="63.9559" gradientUnits="userSpaceOnUse">
<stop stop-color="#E5C5D5"/>
<stop offset="0.42" stop-color="#EAD4D1"/>
<stop offset="1" stop-color="#F0E9CB"/>
</linearGradient>
<linearGradient id="paint12_linear_176_956" x1="94.3609" y1="82.365" x2="88.5272" y2="66.0163" gradientUnits="userSpaceOnUse">
<stop offset="0.02" stop-color="white" stop-opacity="0"/>
<stop offset="1" stop-color="white"/>
</linearGradient>
<clipPath id="clip0_176_956">
<rect width="309" height="265" fill="white"/>
</clipPath>
</defs>
</svg>
