<svg width="26" height="25" viewBox="0 0 26 25" fill="none" xmlns="http://www.w3.org/2000/svg">
<path d="M12.8206 0C5.89807 0 0.286133 5.59638 0.286133 12.4997C0.286133 18.3616 4.33326 23.2805 9.79278 24.6315V16.3197H7.20817V12.4997H9.79278V10.8538C9.79278 6.59936 11.7236 4.6274 15.9121 4.6274C16.7063 4.6274 18.0766 4.7829 18.6371 4.9379V8.40033C18.3413 8.36933 17.8274 8.35383 17.1891 8.35383C15.134 8.35383 14.3398 9.13031 14.3398 11.1488V12.4997H18.4341L17.7306 16.3197H14.3398V24.908C20.5464 24.1605 25.3556 18.8906 25.3556 12.4997C25.3551 5.59638 19.7432 0 12.8206 0Z" fill="#222222"/>
</svg>
