<svg width="26" height="25" viewBox="0 0 26 25" fill="none" xmlns="http://www.w3.org/2000/svg">
<g clip-path="url(#clip0_688_133)">
<path d="M13.0015 2.25098C16.3507 2.25098 16.7473 2.26562 18.0644 2.32422C19.2885 2.37793 19.9495 2.58301 20.3902 2.75391C20.9728 2.97852 21.3939 3.25195 21.8297 3.68652C22.2704 4.12598 22.5397 4.54102 22.7649 5.12207C22.9363 5.56152 23.1419 6.22559 23.1958 7.44141C23.2545 8.75977 23.2692 9.15527 23.2692 12.4902C23.2692 15.8301 23.2545 16.2256 23.1958 17.5391C23.1419 18.7598 22.9363 19.4189 22.7649 19.8584C22.5397 20.4395 22.2655 20.8594 21.8297 21.2939C21.389 21.7334 20.9728 22.002 20.3902 22.2266C19.9495 22.3975 19.2836 22.6025 18.0644 22.6563C16.7424 22.7148 16.3458 22.7295 13.0015 22.7295C9.6524 22.7295 9.2558 22.7148 7.93867 22.6563C6.71458 22.6025 6.05357 22.3975 5.61289 22.2266C5.03022 22.002 4.60913 21.7285 4.17336 21.2939C3.73268 20.8545 3.46338 20.4395 3.23815 19.8584C3.06677 19.4189 2.86113 18.7549 2.80727 17.5391C2.74851 16.2207 2.73382 15.8252 2.73382 12.4902C2.73382 9.15039 2.74851 8.75488 2.80727 7.44141C2.86113 6.2207 3.06677 5.56152 3.23815 5.12207C3.46338 4.54102 3.73758 4.12109 4.17336 3.68652C4.61403 3.24707 5.03022 2.97852 5.61289 2.75391C6.05357 2.58301 6.71947 2.37793 7.93867 2.32422C9.2558 2.26562 9.6524 2.25098 13.0015 2.25098ZM13.0015 0C9.59854 0 9.17256 0.0146484 7.83585 0.0732422C6.50403 0.131836 5.58841 0.34668 4.7952 0.654297C3.96771 0.976563 3.26753 1.40137 2.57224 2.09961C1.87206 2.79297 1.44607 3.49121 1.12291 4.31152C0.81444 5.10742 0.598999 6.01563 0.540243 7.34375C0.481486 8.68164 0.466797 9.10645 0.466797 12.5C0.466797 15.8936 0.481486 16.3184 0.540243 17.6514C0.598999 18.9795 0.81444 19.8926 1.12291 20.6836C1.44607 21.5088 1.87206 22.207 2.57224 22.9004C3.26753 23.5938 3.96771 24.0234 4.7903 24.3408C5.58841 24.6484 6.49914 24.8633 7.83095 24.9219C9.16766 24.9805 9.59365 24.9951 12.9966 24.9951C16.3996 24.9951 16.8256 24.9805 18.1623 24.9219C19.4941 24.8633 20.4097 24.6484 21.203 24.3408C22.0256 24.0234 22.7257 23.5938 23.421 22.9004C24.1163 22.207 24.5472 21.5088 24.8655 20.6885C25.1739 19.8926 25.3894 18.9844 25.4481 17.6563C25.5069 16.3232 25.5216 15.8984 25.5216 12.5049C25.5216 9.11133 25.5069 8.68652 25.4481 7.35352C25.3894 6.02539 25.1739 5.11231 24.8655 4.32129C24.557 3.49121 24.131 2.79297 23.4308 2.09961C22.7355 1.40625 22.0353 0.976563 21.2128 0.65918C20.4146 0.351563 19.5039 0.136719 18.1721 0.078125C16.8305 0.0146484 16.4045 0 13.0015 0Z" fill="#222222"/>
<path d="M13.0012 6.0791C9.44647 6.0791 6.5625 8.95508 6.5625 12.5C6.5625 16.0449 9.44647 18.9209 13.0012 18.9209C16.556 18.9209 19.44 16.0449 19.44 12.5C19.44 8.95508 16.556 6.0791 13.0012 6.0791ZM13.0012 16.665C10.695 16.665 8.82463 14.7998 8.82463 12.5C8.82463 10.2002 10.695 8.33496 13.0012 8.33496C15.3074 8.33496 17.1778 10.2002 17.1778 12.5C17.1778 14.7998 15.3074 16.665 13.0012 16.665Z" fill="#222222"/>
<path d="M21.1978 5.8252C21.1978 6.65528 20.5221 7.32422 19.6946 7.32422C18.8622 7.32422 18.1914 6.65039 18.1914 5.8252C18.1914 4.99512 18.8671 4.32617 19.6946 4.32617C20.5221 4.32617 21.1978 5 21.1978 5.8252Z" fill="#222222"/>
</g>
<defs>
<clipPath id="clip0_688_133">
<rect width="25.0695" height="25" fill="white" transform="translate(0.466797)"/>
</clipPath>
</defs>
</svg>
