<svg width="26" height="25" viewBox="0 0 26 25" fill="none" xmlns="http://www.w3.org/2000/svg">
<g clip-path="url(#clip0_688_130)">
<path d="M23.8612 0H2.49829C1.47495 0 0.647461 0.805664 0.647461 1.80176V23.1934C0.647461 24.1895 1.47495 25 2.49829 25H23.8612C24.8845 25 25.7169 24.1895 25.7169 23.1982V1.80176C25.7169 0.805664 24.8845 0 23.8612 0ZM8.08506 21.3037H4.36381V9.37012H8.08506V21.3037ZM6.22444 7.74414C5.02972 7.74414 4.06513 6.78223 4.06513 5.5957C4.06513 4.40918 5.02972 3.44727 6.22444 3.44727C7.41426 3.44727 8.37884 4.40918 8.37884 5.5957C8.37884 6.77734 7.41426 7.74414 6.22444 7.74414ZM22.0104 21.3037H18.294V15.5029C18.294 14.1211 18.2695 12.3389 16.3599 12.3389C14.4259 12.3389 14.1321 13.8477 14.1321 15.4053V21.3037H10.4206V9.37012H13.9852V11.001H14.0342C14.5287 10.0635 15.743 9.07227 17.5498 9.07227C21.3151 9.07227 22.0104 11.543 22.0104 14.7559V21.3037V21.3037Z" fill="#222222"/>
</g>
<defs>
<clipPath id="clip0_688_130">
<rect width="25.0695" height="25" fill="white" transform="translate(0.647461)"/>
</clipPath>
</defs>
</svg>
